<svg xmlns="http://www.w3.org/2000/svg" viewBox="0 0 30 29"><path d="M17.818 21.496a1 1 0 0 1 .077 1.327l-.077.087-3.568 3.568A8 8 0 0 1 2.762 15.343l.174-.179 3.568-3.568a1 1 0 0 1 1.492 1.327l-.078.088-3.568 3.568a6 6 0 0 0 8.323 8.641l.162-.156 3.568-3.568a1 1 0 0 1 1.415 0Zm1.147-11.13a1 1 0 0 1 .083 1.32l-.083.095-6.598 6.598a1 1 0 0 1-1.498-1.32l.083-.094 6.6-6.599a1 1 0 0 1 1.413 0Zm8.099-8.016a8 8 0 0 1 .174 11.135l-.174.179-3.568 3.568a1 1 0 0 1-1.492-1.327l.078-.088 3.568-3.568a6 6 0 0 0-8.323-8.64l-.162.155-3.568 3.568a1 1 0 0 1-1.492-1.327l.077-.087L15.75 2.35a8 8 0 0 1 11.314 0Z"/></svg>