<svg xmlns="http://www.w3.org/2000/svg" enable-background="new 0 0 512 512" viewBox="0 0 512 512"><path d="M391,106c-17.113,0-260.274,0-270,0c-8.284,0-15,6.716-15,15c0,3.68,0,252.562,0,270c0,8.284,6.716,15,15,15
			c3.68,0,252.562,0,270,0c8.284,0,15-6.716,15-15c0-3.68,0-252.562,0-270C406,112.716,399.284,106,391,106z M136,226h60v60h-60V226
			z M226,226h60v60h-60V226z M316,226h60v60h-60V226z M376,196h-60v-60h60V196z M286,196h-60v-60h60V196z M136,136h60v60h-60V136z
			 M136,316h60v60h-60V316z M226,316h60v60h-60V316z M376,376h-60v-60h60V376z"/><path d="M410.492,1H101.508C46.088,1,1,46.088,1,101.508v308.984C1,465.912,46.088,511,101.508,511h308.984
			C465.912,511,511,465.912,511,410.492V101.508C511,46.088,465.912,1,410.492,1z M481,410.492C481,449.37,449.37,481,410.492,481
			H101.508C62.63,481,31,449.37,31,410.492V101.508C31,62.63,62.63,31,101.508,31h308.984C449.37,31,481,62.63,481,101.508V410.492z
			"/></svg>