<svg xmlns="http://www.w3.org/2000/svg" fill-rule="evenodd" clip-rule="evenodd" image-rendering="optimizeQuality" shape-rendering="geometricPrecision" text-rendering="geometricPrecision" viewBox="0 0 213.33 213.33"><path fill-rule="nonzero" d="M44.13 0.05l125.07 0c8.06,0 15.38,3.3 20.68,8.6 5.3,5.3 8.6,12.63 8.6,20.68l0 125.07c0,8.06 -3.3,15.38 -8.6,20.68 -5.3,5.3 -12.63,8.6 -20.68,8.6l-14.43 0c-5.46,0 -10.5,0.95 -15.1,2.85 -4.61,1.91 -8.85,4.78 -12.71,8.62l-16.78 16.69c-1.94,1.93 -5.08,1.93 -7.03,0l-16.78 -16.69c-3.86,-3.84 -8.1,-6.71 -12.71,-8.62 -4.6,-1.9 -9.64,-2.85 -15.1,-2.85l-14.44 0c-8.06,0 -15.38,-3.3 -20.68,-8.6 -5.3,-5.3 -8.6,-12.63 -8.6,-20.68l0 -125.07c0,-8.06 3.3,-15.38 8.6,-20.68 5.3,-5.3 12.63,-8.6 20.68,-8.6zm80.8 183.63l-36.52 0c1.72,1.33 3.39,2.8 5,4.4l13.26 13.19 13.26 -13.19c1.61,-1.6 3.27,-3.07 5,-4.4zm-17.26 -101.04c4.41,-0.25 8.38,-2.14 11.31,-5.07 3.15,-3.15 5.1,-7.51 5.1,-12.32 0,-4.81 -1.95,-9.17 -5.1,-12.31 -3.15,-3.15 -7.51,-5.1 -12.32,-5.1 -4.81,0 -9.17,1.95 -12.32,5.1 -3.15,3.15 -5.1,7.5 -5.1,12.31 0,4.81 1.95,9.17 5.1,12.32 2.93,2.93 6.91,4.82 11.32,5.07 0.33,-0 0.67,-0.01 1,-0.01 0.33,0 0.67,0 1,0.01zm18.38 2c-0.33,0.33 -0.67,0.65 -1.01,0.96 3.97,1.32 7.75,3.06 11.29,5.15 8.99,5.33 16.42,13.02 21.46,22.22 1.93,3.51 2.85,7.27 2.79,11.04 -0.06,3.79 -1.12,7.52 -3.16,10.96 -2.04,3.45 -4.81,6.17 -8.1,8.05 -3.29,1.87 -7.04,2.87 -11.03,2.87l-63.23 0c-3.99,0 -7.74,-1 -11.03,-2.87 -3.29,-1.87 -6.06,-4.6 -8.1,-8.05 -2.04,-3.44 -3.09,-7.17 -3.16,-10.96 -0.06,-3.77 0.86,-7.53 2.79,-11.04 5.04,-9.2 12.47,-16.89 21.46,-22.22 3.54,-2.1 7.32,-3.83 11.29,-5.15 -0.34,-0.31 -0.68,-0.63 -1.01,-0.96 -4.96,-4.96 -8.03,-11.81 -8.03,-19.39 0,-7.57 3.07,-14.42 8.03,-19.38 4.96,-4.96 11.82,-8.03 19.39,-8.03 7.57,0 14.43,3.07 19.39,8.03 4.96,4.96 8.03,11.81 8.03,19.38 0,7.57 -3.07,14.43 -8.03,19.39zm-18.25 8.01c-0.38,0.01 -0.76,0.02 -1.14,0.02 -0.38,0 -0.76,-0.01 -1.14,-0.02 -8.56,0.2 -16.56,2.61 -23.45,6.7 -7.46,4.43 -13.63,10.79 -17.79,18.39 -1.08,1.98 -1.61,4.07 -1.57,6.12 0.04,2.03 0.63,4.09 1.79,6.04 1.15,1.94 2.67,3.44 4.43,4.45 1.76,1.01 3.84,1.54 6.11,1.54l63.23 0c2.27,0 4.35,-0.54 6.11,-1.54 1.77,-1.01 3.29,-2.52 4.44,-4.45 1.15,-1.95 1.75,-4.01 1.79,-6.04 0.04,-2.05 -0.49,-4.14 -1.57,-6.12 -4.16,-7.6 -10.33,-13.97 -17.79,-18.39 -6.89,-4.08 -14.89,-6.5 -23.45,-6.7zm61.4 -82.6l-125.07 0c-5.3,0 -10.12,2.17 -13.61,5.67 -3.5,3.5 -5.67,8.31 -5.67,13.61l0 125.07c0,5.3 2.17,10.12 5.67,13.61 3.5,3.5 8.32,5.67 13.61,5.67l14.44 0 96.2 0 14.43 0c5.3,0 10.12,-2.17 13.61,-5.67 3.5,-3.5 5.67,-8.32 5.67,-13.61l0 -125.07c0,-5.3 -2.17,-10.12 -5.67,-13.61 -3.5,-3.5 -8.32,-5.67 -13.61,-5.67z"/></svg>