<svg xmlns="http://www.w3.org/2000/svg" data-name="Layer 2" viewBox="0 0 32 32" id="video"><path d="M25 2.5H7A4.46 4.46 0 0 0 2.5 7v18A4.46 4.46 0 0 0 7 29.5h18a4.46 4.46 0 0 0 4.5-4.5V7A4.46 4.46 0 0 0 25 2.5ZM28.5 7v.5h-2.29l2-2A3.44 3.44 0 0 1 28.5 7Zm-.88-2.28L24.79 7.5h-3.58l4-4a3.42 3.42 0 0 1 2.41 1.18ZM16.21 7.5l4-4h3.58l-4 4Zm-5 0 4-4h3.58l-4 4Zm-5 0 4-4h3.58l-4 4Zm.79-4h1.79l-4 4H3.5V7A3.46 3.46 0 0 1 7 3.5Zm18 25H7A3.46 3.46 0 0 1 3.5 25V8.5h25V25a3.46 3.46 0 0 1-3.5 3.5Z"></path><path d="M6.85 26.5A1.49 1.49 0 0 1 5.36 25v-8.21a.5.5 0 0 0-.5-.5.5.5 0 0 0-.5.5V25a2.49 2.49 0 0 0 2.49 2.5.5.5 0 1 0 0-1zm2.65 0h-.93a.5.5 0 0 0 0 1h.93a.5.5 0 0 0 0-1zm11.27-10L14 12.34a1.53 1.53 0 0 0-2.33 1.31V22a1.54 1.54 0 0 0 1.54 1.54 1.42 1.42 0 0 0 .79-.23l6.81-4.15a1.54 1.54 0 0 0 0-2.62zm-.53 1.76-6.8 4.16a.51.51 0 0 1-.54 0 .53.53 0 0 1-.27-.47v-8.3a.51.51 0 0 1 .27-.46.55.55 0 0 1 .27-.07.51.51 0 0 1 .27.08l6.8 4.15a.54.54 0 0 1 .26.46.5.5 0 0 1-.26.45z"></path></svg>